<svg viewBox="0 0 620 480" xmlns="http://www.w3.org/2000/svg"
     style="font-family:-apple-system,system-ui,sans-serif;background:white;">
  <text x="310" y="22" text-anchor="middle" font-size="13" font-weight="600" fill="#222">
    M1 Receptor Brake vs. OL Lineage Density — Therapeutic Opportunity Map
  </text>
  <text x="310" y="38" text-anchor="middle" font-size="10" fill="#666">
    X = Chrm1 (M1 receptor expression — higher = more brake on OPC differentiation)
  </text>
  <text x="310" y="52" text-anchor="middle" font-size="10" fill="#666">
    Y = Olig2 (OL lineage density) · Dot size = Plp1 (mature myelin level, value in dot)
  </text>
  <text x="258" y="448" text-anchor="middle" font-size="10" fill="#444">
    Chrm1 expression (ISH energy) — M1 receptor brake intensity
  </text>
  <text transform="rotate(-90,22,250)" x="22" y="250"
    text-anchor="middle" font-size="10" fill="#444">
    Olig2 expression — OL lineage density
  </text>
  <line x1="75" y1="90" x2="75" y2="410" stroke="#ccc" stroke-width="1"/><line x1="75" y1="410" x2="440" y2="410" stroke="#ccc" stroke-width="1"/><line x1="75.0" y1="410" x2="75.0" y2="415" stroke="#999" stroke-width="1"/><text x="75.0" y="426" text-anchor="middle" font-size="9" fill="#666">0</text><line x1="154.5" y1="410" x2="154.5" y2="415" stroke="#999" stroke-width="1"/><text x="154.5" y="426" text-anchor="middle" font-size="9" fill="#666">4</text><line x1="234.0" y1="410" x2="234.0" y2="415" stroke="#999" stroke-width="1"/><text x="234.0" y="426" text-anchor="middle" font-size="9" fill="#666">8</text><line x1="313.5" y1="410" x2="313.5" y2="415" stroke="#999" stroke-width="1"/><text x="313.5" y="426" text-anchor="middle" font-size="9" fill="#666">12</text><line x1="393.0" y1="410" x2="393.0" y2="415" stroke="#999" stroke-width="1"/><text x="393.0" y="426" text-anchor="middle" font-size="9" fill="#666">16</text><line x1="70" y1="410.0" x2="75" y2="410.0" stroke="#999" stroke-width="1"/><text x="67" y="414.0" text-anchor="end" font-size="9" fill="#666">0</text><line x1="70" y1="343.2" x2="75" y2="343.2" stroke="#999" stroke-width="1"/><text x="67" y="347.2" text-anchor="end" font-size="9" fill="#666">4</text><line x1="70" y1="276.5" x2="75" y2="276.5" stroke="#999" stroke-width="1"/><text x="67" y="280.5" text-anchor="end" font-size="9" fill="#666">8</text><line x1="70" y1="209.7" x2="75" y2="209.7" stroke="#999" stroke-width="1"/><text x="67" y="213.7" text-anchor="end" font-size="9" fill="#666">12</text><line x1="70" y1="143.0" x2="75" y2="143.0" stroke="#999" stroke-width="1"/><text x="67" y="147.0" text-anchor="end" font-size="9" fill="#666">16</text><circle cx="400.9" cy="124.3" r="23.2" fill="#a93226" opacity="0.82" stroke="white" stroke-width="1.5"/><text x="400.9" y="128.3" text-anchor="middle" font-size="8" fill="white" font-weight="600">16</text><circle cx="390.3" cy="168.4" r="21.9" fill="#1a5c8a" opacity="0.82" stroke="white" stroke-width="1.5"/><text x="390.3" y="172.4" text-anchor="middle" font-size="8" fill="white" font-weight="600">14</text><circle cx="117.0" cy="211.8" r="21.6" fill="#27ae60" opacity="0.82" stroke="white" stroke-width="1.5"/><text x="117.0" y="215.8" text-anchor="middle" font-size="8" fill="white" font-weight="600">14</text><circle cx="335.4" cy="144.9" r="25.4" fill="#e67e22" opacity="0.82" stroke="white" stroke-width="1.5"/><text x="335.4" y="148.9" text-anchor="middle" font-size="8" fill="white" font-weight="600">19</text><circle cx="171.1" cy="192.5" r="25.6" fill="#8e44ad" opacity="0.82" stroke="white" stroke-width="1.5"/><text x="171.1" y="196.5" text-anchor="middle" font-size="8" fill="white" font-weight="600">19</text><circle cx="129.6" cy="179.3" r="28.0" fill="#2c3e50" opacity="0.82" stroke="white" stroke-width="1.5"/><text x="129.6" y="183.3" text-anchor="middle" font-size="8" fill="white" font-weight="600">22</text><circle cx="144.0" cy="158.4" r="26.3" fill="#16a085" opacity="0.82" stroke="white" stroke-width="1.5"/><text x="144.0" y="162.4" text-anchor="middle" font-size="8" fill="white" font-weight="600">20</text><circle cx="239.8" cy="236.2" r="26.3" fill="#7f8c8d" opacity="0.82" stroke="white" stroke-width="1.5"/><text x="239.8" y="240.2" text-anchor="middle" font-size="8" fill="white" font-weight="600">20</text><text x="428.9" y="110.3" text-anchor="start" font-size="10" fill="#a93226" font-weight="600">Isocortex</text><text x="362.3" y="173.4" text-anchor="end" font-size="10" fill="#1a5c8a" font-weight="600">Hippocampus</text><text x="117.0" y="249.8" text-anchor="middle" font-size="10" fill="#27ae60" font-weight="600">Cerebellum</text><text x="304.4" y="130.9" text-anchor="end" font-size="10" fill="#e67e22" font-weight="600">Striatum</text><text x="202.1" y="212.5" text-anchor="start" font-size="10" fill="#8e44ad" font-weight="600">Hypothalamus</text><text x="95.6" y="184.3" text-anchor="end" font-size="10" fill="#2c3e50" font-weight="600">Midbrain</text><text x="175.0" y="143.4" text-anchor="start" font-size="10" fill="#16a085" font-weight="600">Thalamus</text><text x="239.8" y="274.2" text-anchor="middle" font-size="10" fill="#7f8c8d" font-weight="600">Olf. bulb</text><rect x="451" y="146" width="155" height="54" rx="4" fill="#fff5f5" stroke="#c0392b" stroke-width="1"/><text x="457" y="160" font-size="9" fill="#c0392b" font-weight="600">Upper-right quadrant:</text><text x="457" y="173" font-size="9" fill="#c0392b">High OL density +</text><text x="457" y="186" font-size="9" fill="#c0392b">High M1 brake</text><text x="457" y="199" font-size="9" fill="#c0392b">→ most M1 antagonist leverage</text><text x="455" y="100" font-size="9.5" fill="#444" font-weight="600">Dot size = Plp1</text><text x="455" y="113" font-size="9" fill="#666">(mature myelin level)</text><text x="455" y="126" font-size="9" fill="#666">value shown inside dot</text>
</svg>