<svg viewBox="0 0 800 500" xmlns="http://www.w3.org/2000/svg"
     style="font-family:-apple-system,system-ui,sans-serif;background:white;">
  <text x="400" y="22" text-anchor="middle" font-size="13" font-weight="600" fill="#222">
    M1 Receptor Brake vs. OL Lineage Density — Therapeutic Opportunity Map
  </text>
  <text x="400" y="38" text-anchor="middle" font-size="10" fill="#666">
    X = Chrm1 (M1 receptor expression — higher = more brake on OPC differentiation)
  </text>
  <text x="400" y="52" text-anchor="middle" font-size="10" fill="#666">
    Y = Olig2 (OL lineage density) · Number in dot = Plp1 (mature myelin level)
  </text>
  <text x="419" y="473" text-anchor="middle" font-size="10" fill="#444">
    Chrm1 expression (ISH energy) — M1 receptor brake intensity
  </text>
  <text transform="rotate(-90,22,262)" x="22" y="262"
    text-anchor="middle" font-size="10" fill="#444">
    Olig2 expression — OL lineage density
  </text>
  <line x1="80" y1="90" x2="80" y2="435" stroke="#ccc" stroke-width="1"/><line x1="80" y1="435" x2="758" y2="435" stroke="#ccc" stroke-width="1"/><line x1="80.0" y1="435" x2="80.0" y2="440" stroke="#999" stroke-width="1"/><text x="80.0" y="451" text-anchor="middle" font-size="9" fill="#666">0</text><line x1="227.7" y1="435" x2="227.7" y2="440" stroke="#999" stroke-width="1"/><text x="227.7" y="451" text-anchor="middle" font-size="9" fill="#666">4</text><line x1="375.3" y1="435" x2="375.3" y2="440" stroke="#999" stroke-width="1"/><text x="375.3" y="451" text-anchor="middle" font-size="9" fill="#666">8</text><line x1="523.0" y1="435" x2="523.0" y2="440" stroke="#999" stroke-width="1"/><text x="523.0" y="451" text-anchor="middle" font-size="9" fill="#666">12</text><line x1="670.7" y1="435" x2="670.7" y2="440" stroke="#999" stroke-width="1"/><text x="670.7" y="451" text-anchor="middle" font-size="9" fill="#666">16</text><line x1="75" y1="435.0" x2="80" y2="435.0" stroke="#999" stroke-width="1"/><text x="72" y="439.0" text-anchor="end" font-size="9" fill="#666">0</text><line x1="75" y1="363.0" x2="80" y2="363.0" stroke="#999" stroke-width="1"/><text x="72" y="367.0" text-anchor="end" font-size="9" fill="#666">4</text><line x1="75" y1="291.1" x2="80" y2="291.1" stroke="#999" stroke-width="1"/><text x="72" y="295.1" text-anchor="end" font-size="9" fill="#666">8</text><line x1="75" y1="219.1" x2="80" y2="219.1" stroke="#999" stroke-width="1"/><text x="72" y="223.1" text-anchor="end" font-size="9" fill="#666">12</text><line x1="75" y1="147.1" x2="80" y2="147.1" stroke="#999" stroke-width="1"/><text x="72" y="151.1" text-anchor="end" font-size="9" fill="#666">16</text><line x1="685.4" y1="118.0" x2="685.4" y2="109.0" stroke="#a93226" stroke-width="0.8" opacity="0.5"/><line x1="660.9" y1="182.1" x2="653.9" y2="193.2" stroke="#1a5c8a" stroke-width="0.8" opacity="0.5"/><line x1="158.0" y1="230.4" x2="158.0" y2="243.4" stroke="#27ae60" stroke-width="0.8" opacity="0.5"/><line x1="559.0" y1="141.6" x2="551.9" y2="130.6" stroke="#e67e22" stroke-width="0.8" opacity="0.5"/><line x1="267.6" y1="200.5" x2="314.6" y2="200.5" stroke="#8e44ad" stroke-width="0.8" opacity="0.5"/><line x1="172.5" y1="186.3" x2="133.5" y2="186.3" stroke="#2c3e50" stroke-width="0.8" opacity="0.5"/><line x1="216.9" y1="162.0" x2="256.2" y2="154.5" stroke="#16a085" stroke-width="0.8" opacity="0.5"/><line x1="386.2" y1="256.6" x2="386.2" y2="269.6" stroke="#7f8c8d" stroke-width="0.8" opacity="0.5"/><circle cx="685.4" cy="127.0" r="9" fill="#a93226" opacity="0.88" stroke="white" stroke-width="1.5"/><text x="685.4" y="130.5" text-anchor="middle" font-size="7.5" fill="white" font-weight="600">16</text><circle cx="665.8" cy="174.5" r="9" fill="#1a5c8a" opacity="0.88" stroke="white" stroke-width="1.5"/><text x="665.8" y="178.0" text-anchor="middle" font-size="7.5" fill="white" font-weight="600">14</text><circle cx="158.0" cy="221.4" r="9" fill="#27ae60" opacity="0.88" stroke="white" stroke-width="1.5"/><text x="158.0" y="224.9" text-anchor="middle" font-size="7.5" fill="white" font-weight="600">14</text><circle cx="563.8" cy="149.2" r="9" fill="#e67e22" opacity="0.88" stroke="white" stroke-width="1.5"/><text x="563.8" y="152.7" text-anchor="middle" font-size="7.5" fill="white" font-weight="600">19</text><circle cx="258.6" cy="200.5" r="9" fill="#8e44ad" opacity="0.88" stroke="white" stroke-width="1.5"/><text x="258.6" y="204.0" text-anchor="middle" font-size="7.5" fill="white" font-weight="600">19</text><circle cx="181.5" cy="186.3" r="9" fill="#2c3e50" opacity="0.88" stroke="white" stroke-width="1.5"/><text x="181.5" y="189.8" text-anchor="middle" font-size="7.5" fill="white" font-weight="600">22</text><circle cx="208.1" cy="163.7" r="9" fill="#16a085" opacity="0.88" stroke="white" stroke-width="1.5"/><text x="208.1" y="167.2" text-anchor="middle" font-size="7.5" fill="white" font-weight="600">20</text><circle cx="386.2" cy="247.6" r="9" fill="#7f8c8d" opacity="0.88" stroke="white" stroke-width="1.5"/><text x="386.2" y="251.1" text-anchor="middle" font-size="7.5" fill="white" font-weight="600">20</text><text x="685.4" y="105.0" text-anchor="middle" font-size="10" fill="#a93226" font-weight="600">Isocortex</text><text x="651.8" y="196.5" text-anchor="middle" font-size="10" fill="#1a5c8a" font-weight="600">Hippocampus</text><text x="158.0" y="247.4" text-anchor="middle" font-size="10" fill="#27ae60" font-weight="600">Cerebellum</text><text x="549.8" y="127.2" text-anchor="middle" font-size="10" fill="#e67e22" font-weight="600">Striatum</text><text x="318.6" y="200.5" text-anchor="start" font-size="10" fill="#8e44ad" font-weight="600">Hypothalamus</text><text x="129.5" y="186.3" text-anchor="end" font-size="10" fill="#2c3e50" font-weight="600">Midbrain</text><text x="260.1" y="153.7" text-anchor="start" font-size="10" fill="#16a085" font-weight="600">Thalamus</text><text x="386.2" y="273.6" text-anchor="middle" font-size="10" fill="#7f8c8d" font-weight="600">Olf. bulb</text><rect x="453" y="373" width="168" height="44" rx="4" fill="#fff5f5" stroke="#c0392b" stroke-width="1"/><text x="459" y="387" font-size="9" fill="#c0392b" font-weight="600">Upper-right = high OL + high M1 brake</text><text x="459" y="401" font-size="9" fill="#c0392b">→ most leverage for M1 antagonism</text><circle cx="93" cy="467" r="6" fill="#888" opacity="0.8"/><text x="93" y="470" text-anchor="middle" font-size="6" fill="white">22</text><text x="103" y="470" font-size="9" fill="#666">Dot number = Plp1 expression (mature myelin level)</text>
</svg>