<svg viewBox="0 0 730 543" xmlns="http://www.w3.org/2000/svg"
     style="font-family:-apple-system,system-ui,sans-serif;background:white;">
  <text x="365" y="22" text-anchor="middle" font-size="13" font-weight="600" fill="#222">
    Muscarinic Receptors, OPC Lineage, and Myelin Genes Across Brain Regions
  </text>
  <text x="365" y="38" text-anchor="middle" font-size="10" fill="#666">
    Allen Mouse Brain Atlas · ISH expression energy (row-normalized per gene)
  </text>
  <text x="365" y="53" text-anchor="middle" font-size="10" fill="#a93226">
    Chrm1 (M1 receptor) and Olig2 (OL lineage) co-peak in isocortex and hippocampus
  </text>
  <rect x="100" y="55" width="70" height="402" fill="#fff0f0" opacity="0.65"/><rect x="170" y="55" width="70" height="402" fill="#f0f8ff" opacity="0.65"/><defs><linearGradient id="cb1" x1="0" y1="1" x2="0" y2="0"><stop offset="0%" stop-color="rgb(220,235,255)"/><stop offset="50%" stop-color="rgb(255,255,255)"/><stop offset="100%" stop-color="rgb(255,50,50)"/></linearGradient></defs><rect x="670" y="115" width="13" height="338" fill="url(#cb1)" stroke="#ccc" stroke-width="0.5"/><text x="676" y="111" text-anchor="middle" font-size="8" fill="#555">high</text><text x="676" y="463" text-anchor="middle" font-size="8" fill="#555">low</text><text x="135" y="99" text-anchor="middle" font-size="10" fill="#a93226" font-weight="bold">Isocortex</text><text x="135" y="111" text-anchor="middle" font-size="8.5" fill="#a93226" font-style="italic">↑ M1 peak</text><text x="205" y="99" text-anchor="middle" font-size="10" fill="#1a5c8a" font-weight="bold">Hippocampus</text><text x="205" y="111" text-anchor="middle" font-size="8.5" fill="#1a5c8a" font-style="italic">↑ OPC-rich</text><text x="275" y="99" text-anchor="middle" font-size="10" fill="#444" font-weight="normal">Cerebellum</text><text x="345" y="99" text-anchor="middle" font-size="10" fill="#444" font-weight="normal">Striatum</text><text x="415" y="99" text-anchor="middle" font-size="10" fill="#444" font-weight="normal">Hypothalamus</text><text x="485" y="99" text-anchor="middle" font-size="10" fill="#444" font-weight="normal">Midbrain</text><text x="555" y="99" text-anchor="middle" font-size="10" fill="#444" font-weight="normal">Thalamus</text><text x="625" y="99" text-anchor="middle" font-size="10" fill="#444" font-weight="normal">Olf. bulb</text><rect x="100" y="115" width="70" height="26" fill="rgb(255,50,50)" stroke="white" stroke-width="1.5"/><text x="135" y="132" text-anchor="middle" font-size="8" fill="white">16.4</text><rect x="170" y="115" width="70" height="26" fill="rgb(255,65,65)" stroke="white" stroke-width="1.5"/><text x="205" y="132" text-anchor="middle" font-size="8" fill="white">15.9</text><rect x="240" y="115" width="70" height="26" fill="rgb(220,235,255)" stroke="white" stroke-width="1.5"/><rect x="310" y="115" width="70" height="26" fill="rgb(255,144,144)" stroke="white" stroke-width="1.5"/><rect x="380" y="115" width="70" height="26" fill="rgb(233,242,255)" stroke="white" stroke-width="1.5"/><rect x="450" y="115" width="70" height="26" fill="rgb(223,236,255)" stroke="white" stroke-width="1.5"/><rect x="520" y="115" width="70" height="26" fill="rgb(226,238,255)" stroke="white" stroke-width="1.5"/><rect x="590" y="115" width="70" height="26" fill="rgb(250,252,255)" stroke="white" stroke-width="1.5"/><rect x="100" y="141" width="70" height="26" fill="rgb(246,250,255)" stroke="white" stroke-width="1.5"/><rect x="170" y="141" width="70" height="26" fill="rgb(220,235,255)" stroke="white" stroke-width="1.5"/><rect x="240" y="141" width="70" height="26" fill="rgb(222,236,255)" stroke="white" stroke-width="1.5"/><rect x="310" y="141" width="70" height="26" fill="rgb(220,235,255)" stroke="white" stroke-width="1.5"/><rect x="380" y="141" width="70" height="26" fill="rgb(239,246,255)" stroke="white" stroke-width="1.5"/><rect x="450" y="141" width="70" height="26" fill="rgb(255,193,193)" stroke="white" stroke-width="1.5"/><rect x="520" y="141" width="70" height="26" fill="rgb(248,251,255)" stroke="white" stroke-width="1.5"/><rect x="590" y="141" width="70" height="26" fill="rgb(255,50,50)" stroke="white" stroke-width="1.5"/><text x="625" y="158" text-anchor="middle" font-size="8" fill="white">8.3</text><rect x="100" y="167" width="70" height="26" fill="rgb(255,50,50)" stroke="white" stroke-width="1.5"/><text x="135" y="184" text-anchor="middle" font-size="8" fill="white">16.7</text><rect x="170" y="167" width="70" height="26" fill="rgb(255,230,230)" stroke="white" stroke-width="1.5"/><rect x="240" y="167" width="70" height="26" fill="rgb(220,235,255)" stroke="white" stroke-width="1.5"/><rect x="310" y="167" width="70" height="26" fill="rgb(228,239,255)" stroke="white" stroke-width="1.5"/><rect x="380" y="167" width="70" height="26" fill="rgb(237,245,255)" stroke="white" stroke-width="1.5"/><rect x="450" y="167" width="70" height="26" fill="rgb(241,247,255)" stroke="white" stroke-width="1.5"/><rect x="520" y="167" width="70" height="26" fill="rgb(233,242,255)" stroke="white" stroke-width="1.5"/><rect x="590" y="167" width="70" height="26" fill="rgb(241,247,255)" stroke="white" stroke-width="1.5"/><rect x="100" y="193" width="70" height="26" fill="rgb(247,250,255)" stroke="white" stroke-width="1.5"/><rect x="170" y="193" width="70" height="26" fill="rgb(234,243,255)" stroke="white" stroke-width="1.5"/><rect x="240" y="193" width="70" height="26" fill="rgb(220,235,255)" stroke="white" stroke-width="1.5"/><rect x="310" y="193" width="70" height="26" fill="rgb(255,50,50)" stroke="white" stroke-width="1.5"/><text x="345" y="210" text-anchor="middle" font-size="8" fill="white">12.5</text><rect x="380" y="193" width="70" height="26" fill="rgb(221,235,255)" stroke="white" stroke-width="1.5"/><rect x="450" y="193" width="70" height="26" fill="rgb(220,235,255)" stroke="white" stroke-width="1.5"/><rect x="520" y="193" width="70" height="26" fill="rgb(221,236,255)" stroke="white" stroke-width="1.5"/><rect x="590" y="193" width="70" height="26" fill="rgb(236,244,255)" stroke="white" stroke-width="1.5"/><rect x="100" y="219" width="70" height="26" fill="rgb(255,50,50)" stroke="white" stroke-width="1.5"/><text x="135" y="236" text-anchor="middle" font-size="8" fill="white">17.1</text><rect x="170" y="219" width="70" height="26" fill="rgb(255,211,211)" stroke="white" stroke-width="1.5"/><rect x="240" y="219" width="70" height="26" fill="rgb(235,243,255)" stroke="white" stroke-width="1.5"/><rect x="310" y="219" width="70" height="26" fill="rgb(255,125,125)" stroke="white" stroke-width="1.5"/><text x="345" y="236" text-anchor="middle" font-size="8" fill="#333">15.9</text><rect x="380" y="219" width="70" height="26" fill="rgb(247,250,255)" stroke="white" stroke-width="1.5"/><rect x="450" y="219" width="70" height="26" fill="rgb(255,251,251)" stroke="white" stroke-width="1.5"/><rect x="520" y="219" width="70" height="26" fill="rgb(255,174,174)" stroke="white" stroke-width="1.5"/><rect x="590" y="219" width="70" height="26" fill="rgb(220,235,255)" stroke="white" stroke-width="1.5"/><rect x="100" y="245" width="70" height="26" fill="rgb(255,168,168)" stroke="white" stroke-width="1.5"/><rect x="170" y="245" width="70" height="26" fill="rgb(255,50,50)" stroke="white" stroke-width="1.5"/><text x="205" y="262" text-anchor="middle" font-size="8" fill="white">2.6</text><rect x="240" y="245" width="70" height="26" fill="rgb(220,235,255)" stroke="white" stroke-width="1.5"/><rect x="310" y="245" width="70" height="26" fill="rgb(255,245,245)" stroke="white" stroke-width="1.5"/><rect x="380" y="245" width="70" height="26" fill="rgb(255,119,119)" stroke="white" stroke-width="1.5"/><text x="415" y="262" text-anchor="middle" font-size="8" fill="#333">2.3</text><rect x="450" y="245" width="70" height="26" fill="rgb(255,165,165)" stroke="white" stroke-width="1.5"/><rect x="520" y="245" width="70" height="26" fill="rgb(255,178,178)" stroke="white" stroke-width="1.5"/><rect x="590" y="245" width="70" height="26" fill="rgb(255,110,110)" stroke="white" stroke-width="1.5"/><text x="625" y="262" text-anchor="middle" font-size="8" fill="#333">2.4</text><rect x="100" y="271" width="70" height="26" fill="rgb(255,50,50)" stroke="white" stroke-width="1.5"/><text x="135" y="288" text-anchor="middle" font-size="8" fill="white">0.7</text><rect x="170" y="271" width="70" height="26" fill="rgb(255,243,243)" stroke="white" stroke-width="1.5"/><rect x="240" y="271" width="70" height="26" fill="rgb(226,238,255)" stroke="white" stroke-width="1.5"/><rect x="310" y="271" width="70" height="26" fill="rgb(241,247,255)" stroke="white" stroke-width="1.5"/><rect x="380" y="271" width="70" height="26" fill="rgb(235,244,255)" stroke="white" stroke-width="1.5"/><rect x="450" y="271" width="70" height="26" fill="rgb(238,245,255)" stroke="white" stroke-width="1.5"/><rect x="520" y="271" width="70" height="26" fill="rgb(220,235,255)" stroke="white" stroke-width="1.5"/><rect x="590" y="271" width="70" height="26" fill="rgb(255,222,222)" stroke="white" stroke-width="1.5"/><rect x="100" y="297" width="70" height="26" fill="rgb(223,236,255)" stroke="white" stroke-width="1.5"/><rect x="170" y="297" width="70" height="26" fill="rgb(224,237,255)" stroke="white" stroke-width="1.5"/><rect x="240" y="297" width="70" height="26" fill="rgb(242,247,255)" stroke="white" stroke-width="1.5"/><rect x="310" y="297" width="70" height="26" fill="rgb(255,50,50)" stroke="white" stroke-width="1.5"/><text x="345" y="314" text-anchor="middle" font-size="8" fill="white">1.2</text><rect x="380" y="297" width="70" height="26" fill="rgb(220,235,255)" stroke="white" stroke-width="1.5"/><rect x="450" y="297" width="70" height="26" fill="rgb(255,219,219)" stroke="white" stroke-width="1.5"/><rect x="520" y="297" width="70" height="26" fill="rgb(251,253,255)" stroke="white" stroke-width="1.5"/><rect x="590" y="297" width="70" height="26" fill="rgb(255,196,196)" stroke="white" stroke-width="1.5"/><rect x="100" y="323" width="70" height="26" fill="rgb(255,235,235)" stroke="white" stroke-width="1.5"/><rect x="170" y="323" width="70" height="26" fill="rgb(237,245,255)" stroke="white" stroke-width="1.5"/><rect x="240" y="323" width="70" height="26" fill="rgb(220,235,255)" stroke="white" stroke-width="1.5"/><rect x="310" y="323" width="70" height="26" fill="rgb(255,50,50)" stroke="white" stroke-width="1.5"/><text x="345" y="340" text-anchor="middle" font-size="8" fill="white">4.4</text><rect x="380" y="323" width="70" height="26" fill="rgb(255,246,246)" stroke="white" stroke-width="1.5"/><rect x="450" y="323" width="70" height="26" fill="rgb(255,101,101)" stroke="white" stroke-width="1.5"/><text x="485" y="340" text-anchor="middle" font-size="8" fill="#333">4.2</text><rect x="520" y="323" width="70" height="26" fill="rgb(255,201,201)" stroke="white" stroke-width="1.5"/><rect x="590" y="323" width="70" height="26" fill="rgb(255,127,127)" stroke="white" stroke-width="1.5"/><text x="625" y="340" text-anchor="middle" font-size="8" fill="#333">4.1</text><rect x="100" y="349" width="70" height="26" fill="rgb(232,242,255)" stroke="white" stroke-width="1.5"/><rect x="170" y="349" width="70" height="26" fill="rgb(220,235,255)" stroke="white" stroke-width="1.5"/><rect x="240" y="349" width="70" height="26" fill="rgb(255,157,157)" stroke="white" stroke-width="1.5"/><rect x="310" y="349" width="70" height="26" fill="rgb(255,159,159)" stroke="white" stroke-width="1.5"/><rect x="380" y="349" width="70" height="26" fill="rgb(255,157,157)" stroke="white" stroke-width="1.5"/><rect x="450" y="349" width="70" height="26" fill="rgb(255,50,50)" stroke="white" stroke-width="1.5"/><text x="485" y="366" text-anchor="middle" font-size="8" fill="white">11.9</text><rect x="520" y="349" width="70" height="26" fill="rgb(255,112,112)" stroke="white" stroke-width="1.5"/><text x="555" y="366" text-anchor="middle" font-size="8" fill="#333">11.1</text><rect x="590" y="349" width="70" height="26" fill="rgb(243,248,255)" stroke="white" stroke-width="1.5"/><rect x="100" y="375" width="70" height="26" fill="rgb(237,244,255)" stroke="white" stroke-width="1.5"/><rect x="170" y="375" width="70" height="26" fill="rgb(223,236,255)" stroke="white" stroke-width="1.5"/><rect x="240" y="375" width="70" height="26" fill="rgb(220,235,255)" stroke="white" stroke-width="1.5"/><rect x="310" y="375" width="70" height="26" fill="rgb(255,217,217)" stroke="white" stroke-width="1.5"/><rect x="380" y="375" width="70" height="26" fill="rgb(255,204,204)" stroke="white" stroke-width="1.5"/><rect x="450" y="375" width="70" height="26" fill="rgb(255,50,50)" stroke="white" stroke-width="1.5"/><text x="485" y="392" text-anchor="middle" font-size="8" fill="white">21.7</text><rect x="520" y="375" width="70" height="26" fill="rgb(255,162,162)" stroke="white" stroke-width="1.5"/><rect x="590" y="375" width="70" height="26" fill="rgb(255,162,162)" stroke="white" stroke-width="1.5"/><rect x="100" y="401" width="70" height="26" fill="rgb(225,237,255)" stroke="white" stroke-width="1.5"/><rect x="170" y="401" width="70" height="26" fill="rgb(225,238,255)" stroke="white" stroke-width="1.5"/><rect x="240" y="401" width="70" height="26" fill="rgb(248,251,255)" stroke="white" stroke-width="1.5"/><rect x="310" y="401" width="70" height="26" fill="rgb(255,222,222)" stroke="white" stroke-width="1.5"/><rect x="380" y="401" width="70" height="26" fill="rgb(255,232,232)" stroke="white" stroke-width="1.5"/><rect x="450" y="401" width="70" height="26" fill="rgb(255,50,50)" stroke="white" stroke-width="1.5"/><text x="485" y="418" text-anchor="middle" font-size="8" fill="white">10.5</text><rect x="520" y="401" width="70" height="26" fill="rgb(255,154,154)" stroke="white" stroke-width="1.5"/><rect x="590" y="401" width="70" height="26" fill="rgb(220,235,255)" stroke="white" stroke-width="1.5"/><rect x="100" y="427" width="70" height="26" fill="rgb(255,50,50)" stroke="white" stroke-width="1.5"/><text x="135" y="444" text-anchor="middle" font-size="8" fill="white">10.6</text><rect x="170" y="427" width="70" height="26" fill="rgb(255,100,100)" stroke="white" stroke-width="1.5"/><text x="205" y="444" text-anchor="middle" font-size="8" fill="#333">9.7</text><rect x="240" y="427" width="70" height="26" fill="rgb(224,237,255)" stroke="white" stroke-width="1.5"/><rect x="310" y="427" width="70" height="26" fill="rgb(240,246,255)" stroke="white" stroke-width="1.5"/><rect x="380" y="427" width="70" height="26" fill="rgb(239,246,255)" stroke="white" stroke-width="1.5"/><rect x="450" y="427" width="70" height="26" fill="rgb(255,183,183)" stroke="white" stroke-width="1.5"/><rect x="520" y="427" width="70" height="26" fill="rgb(255,184,184)" stroke="white" stroke-width="1.5"/><rect x="590" y="427" width="70" height="26" fill="rgb(220,235,255)" stroke="white" stroke-width="1.5"/><line x1="100" y1="219" x2="660" y2="219" stroke="#bbb" stroke-width="1.5"/><line x1="100" y1="349" x2="660" y2="349" stroke="#bbb" stroke-width="1.5"/><line x1="100" y1="427" x2="660" y2="427" stroke="#bbb" stroke-width="1.5"/><line x1="100" y1="453" x2="660" y2="453" stroke="#bbb" stroke-width="1.5"/><text x="95" y="132" text-anchor="end" font-size="10.5" fill="#c0392b" font-weight="600" font-family="ui-monospace,Menlo,monospace">Chrm1</text><text x="95" y="158" text-anchor="end" font-size="10.5" fill="#c0392b" font-weight="600" font-family="ui-monospace,Menlo,monospace">Chrm2</text><text x="95" y="184" text-anchor="end" font-size="10.5" fill="#c0392b" font-weight="600" font-family="ui-monospace,Menlo,monospace">Chrm3</text><text x="95" y="210" text-anchor="end" font-size="10.5" fill="#c0392b" font-weight="600" font-family="ui-monospace,Menlo,monospace">Chrm4</text><text x="95" y="236" text-anchor="end" font-size="10.5" fill="#2980b9" font-weight="600" font-family="ui-monospace,Menlo,monospace">Olig2</text><text x="95" y="262" text-anchor="end" font-size="10.5" fill="#2980b9" font-weight="600" font-family="ui-monospace,Menlo,monospace">Pdgfra</text><text x="95" y="288" text-anchor="end" font-size="10.5" fill="#2980b9" font-weight="600" font-family="ui-monospace,Menlo,monospace">Cspg4</text><text x="95" y="314" text-anchor="end" font-size="10.5" fill="#2980b9" font-weight="600" font-family="ui-monospace,Menlo,monospace">Myrf</text><text x="95" y="340" text-anchor="end" font-size="10.5" fill="#2980b9" font-weight="600" font-family="ui-monospace,Menlo,monospace">Sox10</text><text x="95" y="366" text-anchor="end" font-size="10.5" fill="#27ae60" font-weight="600" font-family="ui-monospace,Menlo,monospace">Mbp</text><text x="95" y="392" text-anchor="end" font-size="10.5" fill="#27ae60" font-weight="600" font-family="ui-monospace,Menlo,monospace">Plp1</text><text x="95" y="418" text-anchor="end" font-size="10.5" fill="#27ae60" font-weight="600" font-family="ui-monospace,Menlo,monospace">Cnp</text><text x="95" y="444" text-anchor="end" font-size="10.5" fill="#8e44ad" font-weight="600" font-family="ui-monospace,Menlo,monospace">Nefl</text><text transform="rotate(-90,18,167)" x="18" y="167" text-anchor="middle" font-size="8.5" fill="#c0392b" font-weight="600">muscarinic ACh receptors</text><text transform="rotate(-90,18,284)" x="18" y="284" text-anchor="middle" font-size="8.5" fill="#2980b9" font-weight="600">OPC / OL lineage</text><text transform="rotate(-90,18,388)" x="18" y="388" text-anchor="middle" font-size="8.5" fill="#27ae60" font-weight="600">mature myelin</text><text transform="rotate(-90,18,440)" x="18" y="440" text-anchor="middle" font-size="8.5" fill="#8e44ad" font-weight="600">neuroaxonal health</text>
</svg>